# MagicaVoxel @ Ephtracy

# group
o 

# material
mtllib Box.mtl
usemtl palette

# normals
vn -1 0 0
vn 1 0 0
vn 0 0 1
vn 0 0 -1
vn 0 -1 0
vn 0 1 0

# texcoords
vt 0.263672 0.5
vt 0.310547 0.5
vt 0.318359 0.5
vt 0.962891 0.5
vt 0.990234 0.5
vt 0.994141 0.5

# verts
v -2 0 2
v -2 0 -2
v -2 3.8 2
v -2 3.8 -2
v -2 3.9 2
v -2 3.9 0.0999999
v -2 3.9 -2.38419e-07
v -2 3.9 -2
v -2 4 2
v -2 4 0.0999999
v -2 4 -2.38419e-07
v -2 4 -2
v 2 0 2
v 2 0 -2
v 2 3 1.8
v 2 3 1.4
v 2 3 1.2
v 2 3 0.7
v 2 3.1 1.4
v 2 3.1 1.2
v 2 3.2 1.7
v 2 3.2 1.6
v 2 3.2 1.5
v 2 3.2 1.4
v 2 3.2 1.2
v 2 3.2 1.1
v 2 3.2 0.9
v 2 3.2 0.8
v 2 3.3 1.2
v 2 3.3 1.1
v 2 3.3 0.9
v 2 3.3 0.8
v 2 3.4 1.5
v 2 3.4 1.4
v 2 3.4 1.2
v 2 3.4 1.1
v 2 3.4 0.9
v 2 3.5 1.7
v 2 3.5 1.6
v 2 3.5 1.4
v 2 3.5 1.2
v 2 3.5 1.1
v 2 3.5 0.9
v 2 3.6 1.8
v 2 3.6 0.7
v 2 3.8 2
v 2 3.8 -2
v 2 3.9 2
v 2 3.9 0.0999999
v 2 3.9 -2.38419e-07
v 2 3.9 -2
v 2 4 2
v 2 4 0.0999999
v 2 4 -2.38419e-07
v 2 4 -2
v -2 0 2
v -2 3.8 2
v -2 3.9 2
v -2 4 2
v -1.9 3.8 2
v -1.9 3.9 2
v -1.3 1.2 2
v -1.3 1.5 2
v -1.2 1.2 2
v -1.2 1.4 2
v -1.2 1.5 2
v -1.2 1.6 2
v -1.1 1.3 2
v -1.1 1.4 2
v -1.1 1.5 2
v -1.1 1.6 2
v -1 1.3 2
v -1 1.5 2
v -0.8 1.2 2
v -0.8 1.6 2
v -0.8 2.3 2
v -0.8 2.9 2
v -0.7 1.2 2
v -0.7 1.4 2
v -0.7 1.5 2
v -0.7 1.6 2
v -0.7 2.1 2
v -0.7 2.3 2
v -0.7 2.9 2
v -0.7 3.1 2
v -0.6 1.4 2
v -0.6 1.5 2
v -0.6 2 2
v -0.6 2.1 2
v -0.6 2.2 2
v -0.6 2.3 2
v -0.6 2.5 2
v -0.6 2.9 2
v -0.6 3.1 2
v -0.6 3.2 2
v -0.5 1.2 2
v -0.5 1.5 2
v -0.5 1.9 2
v -0.5 2 2
v -0.5 2.1 2
v -0.5 2.3 2
v -0.5 2.5 2
v -0.5 2.6 2
v -0.5 3.1 2
v -0.5 3.2 2
v -0.5 3.3 2
v -0.4 1.2 2
v -0.4 1.5 2
v -0.4 1.6 2
v -0.4 2.5 2
v -0.4 2.6 2
v -0.4 2.7 2
v -0.3 1.3 2
v -0.3 1.5 2
v -0.3 1.6 2
v -0.3 1.8 2
v -0.3 1.9 2
v -0.3 2 2
v -0.3 2.7 2
v -0.3 3.1 2
v -0.3 3.2 2
v -0.3 3.3 2
v -0.3 3.4 2
v -0.2 1.3 2
v -0.2 1.5 2
v -0.2 2.2 2
v -0.2 2.3 2
v -0.2 2.4 2
v -0.2 2.5 2
v -0.2 2.6 2
v -0.2 2.7 2
v -0.2 3.1 2
v -0.2 3.2 2
v -0.0999999 1.3 2
v -0.0999999 1.5 2
v -0.0999999 2.4 2
v -0.0999999 2.5 2
v -0.0999999 2.6 2
v -0.0999999 2.7 2
v -0.0999999 2.8 2
v -0.0999999 3.1 2
v -0.0999999 3.2 2
v -0.0999999 3.3 2
v 2.38419e-07 1.3 2
v 2.38419e-07 1.4 2
v 0.1 1.2 2
v 0.1 1.4 2
v 0.1 1.5 2
v 0.1 1.6 2
v 0.1 2.4 2
v 0.1 2.5 2
v 0.1 2.6 2
v 0.1 2.7 2
v 0.1 2.8 2
v 0.1 3.1 2
v 0.1 3.2 2
v 0.1 3.3 2
v 0.2 1.2 2
v 0.2 1.6 2
v 0.2 2.2 2
v 0.2 2.3 2
v 0.2 2.4 2
v 0.2 2.5 2
v 0.2 2.6 2
v 0.2 2.7 2
v 0.2 3.1 2
v 0.2 3.2 2
v 0.3 1.3 2
v 0.3 1.5 2
v 0.3 1.8 2
v 0.3 1.9 2
v 0.3 2 2
v 0.3 2.7 2
v 0.3 3.1 2
v 0.3 3.2 2
v 0.3 3.3 2
v 0.3 3.4 2
v 0.4 1.3 2
v 0.4 1.5 2
v 0.4 2.5 2
v 0.4 2.6 2
v 0.4 2.7 2
v 0.5 1.4 2
v 0.5 1.6 2
v 0.5 1.9 2
v 0.5 2 2
v 0.5 2.1 2
v 0.5 2.3 2
v 0.5 2.5 2
v 0.5 2.6 2
v 0.5 3.1 2
v 0.5 3.2 2
v 0.5 3.3 2
v 0.6 1.3 2
v 0.6 1.4 2
v 0.6 1.5 2
v 0.6 1.6 2
v 0.6 2 2
v 0.6 2.1 2
v 0.6 2.2 2
v 0.6 2.3 2
v 0.6 2.5 2
v 0.6 2.9 2
v 0.6 3.1 2
v 0.6 3.2 2
v 0.7 1.2 2
v 0.7 1.3 2
v 0.7 2.1 2
v 0.7 2.3 2
v 0.7 2.9 2
v 0.7 3.1 2
v 0.8 1.3 2
v 0.8 1.5 2
v 0.8 1.6 2
v 0.8 1.7 2
v 0.8 2.3 2
v 0.8 2.9 2
v 0.9 1.2 2
v 0.9 1.3 2
v 0.9 1.5 2
v 0.9 1.6 2
v 1.1 1.2 2
v 1.1 1.5 2
v 1.1 1.7 2
v 1.2 1.2 2
v 1.2 1.4 2
v 1.2 1.5 2
v 1.2 1.6 2
v 1.3 1.4 2
v 1.3 1.6 2
v 1.9 3.8 2
v 1.9 3.9 2
v 2 0 2
v 2 3.8 2
v 2 3.9 2
v 2 4 2
v -2 0 -2
v -2 3.8 -2
v -2 3.9 -2
v -2 4 -2
v -1.9 3.8 -2
v -1.9 3.9 -2
v 0.9 2.6 -2
v 0.9 2.8 -2
v 0.9 3.4 -2
v 0.9 3.6 -2
v 1 2.7 -2
v 1 2.8 -2
v 1 3.4 -2
v 1 3.5 -2
v 1.1 2.6 -2
v 1.1 2.7 -2
v 1.1 3.5 -2
v 1.1 3.6 -2
v 1.5 2.6 -2
v 1.5 2.7 -2
v 1.5 3.5 -2
v 1.5 3.6 -2
v 1.6 2.7 -2
v 1.6 2.8 -2
v 1.6 3.4 -2
v 1.6 3.5 -2
v 1.7 2.6 -2
v 1.7 2.8 -2
v 1.7 3.4 -2
v 1.7 3.6 -2
v 1.9 3.8 -2
v 1.9 3.9 -2
v 2 0 -2
v 2 3.8 -2
v 2 3.9 -2
v 2 4 -2
v -2 0 2
v 2 0 2
v -2 0 -2
v 2 0 -2
v -2 4 2
v 2 4 2
v -2 4 0.0999999
v 2 4 0.0999999
v -2 4 -2.38419e-07
v 2 4 -2.38419e-07
v -2 4 -2
v 2 4 -2

# faces
f 3/1/1 2/1/1 1/1/1
f 4/1/1 2/1/1 3/1/1
f 5/2/1 4/2/1 3/2/1
f 6/2/1 4/2/1 5/2/1
f 7/2/1 4/2/1 6/2/1
f 8/2/1 4/2/1 7/2/1
f 9/1/1 6/1/1 5/1/1
f 10/2/1 7/2/1 6/2/1
f 10/1/1 6/1/1 9/1/1
f 11/1/1 8/1/1 7/1/1
f 11/2/1 7/2/1 10/2/1
f 12/1/1 8/1/1 11/1/1
f 13/1/2 14/1/2 15/1/2
f 15/1/2 14/1/2 16/1/2
f 16/1/2 14/1/2 17/1/2
f 17/1/2 14/1/2 18/1/2
f 15/4/2 16/4/2 19/4/2
f 16/6/2 17/6/2 19/6/2
f 17/4/2 18/4/2 20/4/2
f 19/6/2 17/6/2 20/6/2
f 15/4/2 19/4/2 21/4/2
f 19/4/2 20/4/2 21/4/2
f 21/4/2 20/4/2 22/4/2
f 22/4/2 20/4/2 23/4/2
f 23/4/2 20/4/2 24/4/2
f 20/4/2 18/4/2 25/4/2
f 24/4/2 20/4/2 25/4/2
f 25/4/2 18/4/2 26/4/2
f 26/4/2 18/4/2 27/4/2
f 27/4/2 18/4/2 28/4/2
f 24/4/2 25/4/2 29/4/2
f 25/6/2 26/6/2 29/6/2
f 26/4/2 27/4/2 30/4/2
f 29/6/2 26/6/2 30/6/2
f 27/6/2 28/6/2 31/6/2
f 30/4/2 27/4/2 31/4/2
f 28/4/2 18/4/2 32/4/2
f 31/6/2 28/6/2 32/6/2
f 23/6/2 24/6/2 33/6/2
f 22/4/2 23/4/2 33/4/2
f 31/4/2 32/4/2 34/4/2
f 33/6/2 24/6/2 34/6/2
f 30/4/2 31/4/2 34/4/2
f 24/4/2 29/4/2 34/4/2
f 29/4/2 30/4/2 34/4/2
f 34/4/2 32/4/2 35/4/2
f 35/4/2 32/4/2 36/4/2
f 36/4/2 32/4/2 37/4/2
f 15/4/2 21/4/2 38/4/2
f 21/6/2 22/6/2 38/6/2
f 22/4/2 33/4/2 39/4/2
f 38/6/2 22/6/2 39/6/2
f 33/4/2 34/4/2 39/4/2
f 34/6/2 35/6/2 40/6/2
f 39/4/2 34/4/2 40/4/2
f 35/4/2 36/4/2 41/4/2
f 40/6/2 35/6/2 41/6/2
f 36/6/2 37/6/2 42/6/2
f 41/4/2 36/4/2 42/4/2
f 37/4/2 32/4/2 43/4/2
f 42/6/2 37/6/2 43/6/2
f 13/1/2 15/1/2 44/1/2
f 41/4/2 42/4/2 44/4/2
f 42/4/2 43/4/2 44/4/2
f 38/4/2 39/4/2 44/4/2
f 39/4/2 40/4/2 44/4/2
f 15/4/2 38/4/2 44/4/2
f 40/4/2 41/4/2 44/4/2
f 43/4/2 32/4/2 45/4/2
f 44/4/2 43/4/2 45/4/2
f 18/1/2 14/1/2 45/1/2
f 32/4/2 18/4/2 45/4/2
f 13/1/2 44/1/2 46/1/2
f 44/1/2 45/1/2 46/1/2
f 45/1/2 14/1/2 47/1/2
f 46/1/2 45/1/2 47/1/2
f 46/2/2 47/2/2 48/2/2
f 48/2/2 47/2/2 49/2/2
f 49/2/2 47/2/2 50/2/2
f 50/2/2 47/2/2 51/2/2
f 48/1/2 49/1/2 52/1/2
f 49/2/2 50/2/2 53/2/2
f 52/1/2 49/1/2 53/1/2
f 50/1/2 51/1/2 54/1/2
f 53/2/2 50/2/2 54/2/2
f 54/1/2 51/1/2 55/1/2
f 60/1/3 57/1/3 56/1/3
f 60/2/3 58/2/3 57/2/3
f 61/1/3 59/1/3 58/1/3
f 61/2/3 58/2/3 60/2/3
f 62/1/3 60/1/3 56/1/3
f 62/1/3 61/1/3 60/1/3
f 63/1/3 61/1/3 62/1/3
f 64/1/3 62/1/3 56/1/3
f 64/5/3 63/5/3 62/5/3
f 65/5/3 63/5/3 64/5/3
f 66/1/3 61/1/3 63/1/3
f 66/5/3 63/5/3 65/5/3
f 67/1/3 61/1/3 66/1/3
f 68/1/3 65/1/3 64/1/3
f 69/5/3 66/5/3 65/5/3
f 69/1/3 65/1/3 68/1/3
f 69/5/3 67/5/3 66/5/3
f 70/5/3 67/5/3 69/5/3
f 71/1/3 61/1/3 67/1/3
f 71/5/3 67/5/3 70/5/3
f 72/5/3 70/5/3 69/5/3
f 72/1/3 68/1/3 64/1/3
f 72/5/3 69/5/3 68/5/3
f 73/1/3 71/1/3 70/1/3
f 73/5/3 70/5/3 72/5/3
f 74/1/3 64/1/3 56/1/3
f 74/1/3 72/1/3 64/1/3
f 74/1/3 73/1/3 72/1/3
f 75/1/3 61/1/3 71/1/3
f 75/1/3 73/1/3 74/1/3
f 75/1/3 71/1/3 73/1/3
f 76/1/3 61/1/3 75/1/3
f 77/1/3 61/1/3 76/1/3
f 78/1/3 74/1/3 56/1/3
f 78/5/3 75/5/3 74/5/3
f 79/5/3 75/5/3 78/5/3
f 80/5/3 75/5/3 79/5/3
f 81/1/3 76/1/3 75/1/3
f 81/5/3 75/5/3 80/5/3
f 82/1/3 76/1/3 81/1/3
f 83/6/3 77/6/3 76/6/3
f 83/1/3 76/1/3 82/1/3
f 84/1/3 61/1/3 77/1/3
f 84/6/3 77/6/3 83/6/3
f 85/1/3 61/1/3 84/1/3
f 86/5/3 80/5/3 79/5/3
f 86/1/3 79/1/3 78/1/3
f 87/1/3 82/1/3 81/1/3
f 87/5/3 80/5/3 86/5/3
f 87/1/3 81/1/3 80/1/3
f 88/1/3 82/1/3 87/1/3
f 89/6/3 83/6/3 82/6/3
f 89/1/3 82/1/3 88/1/3
f 90/6/3 83/6/3 89/6/3
f 91/1/3 84/1/3 83/1/3
f 91/6/3 83/6/3 90/6/3
f 92/1/3 84/1/3 91/1/3
f 93/6/3 85/6/3 84/6/3
f 93/1/3 84/1/3 92/1/3
f 94/1/3 61/1/3 85/1/3
f 94/6/3 85/6/3 93/6/3
f 95/1/3 61/1/3 94/1/3
f 96/1/3 88/1/3 87/1/3
f 96/1/3 86/1/3 78/1/3
f 96/1/3 78/1/3 56/1/3
f 96/1/3 87/1/3 86/1/3
f 97/1/3 88/1/3 96/1/3
f 98/1/3 88/1/3 97/1/3
f 99/6/3 89/6/3 88/6/3
f 99/1/3 88/1/3 98/1/3
f 100/1/3 90/1/3 89/1/3
f 100/6/3 89/6/3 99/6/3
f 101/6/3 92/6/3 91/6/3
f 101/6/3 91/6/3 90/6/3
f 102/1/3 93/1/3 92/1/3
f 102/6/3 92/6/3 101/6/3
f 102/1/3 94/1/3 93/1/3
f 103/1/3 94/1/3 102/1/3
f 104/6/3 95/6/3 94/6/3
f 104/1/3 94/1/3 103/1/3
f 105/1/3 61/1/3 95/1/3
f 105/6/3 95/6/3 104/6/3
f 106/1/3 61/1/3 105/1/3
f 107/5/3 97/5/3 96/5/3
f 107/1/3 96/1/3 56/1/3
f 108/1/3 98/1/3 97/1/3
f 108/5/3 97/5/3 107/5/3
f 109/1/3 98/1/3 108/1/3
f 110/6/3 103/6/3 102/6/3
f 110/1/3 102/1/3 101/1/3
f 111/1/3 104/1/3 103/1/3
f 111/6/3 103/6/3 110/6/3
f 111/1/3 105/1/3 104/1/3
f 112/1/3 105/1/3 111/1/3
f 113/1/3 108/1/3 107/1/3
f 114/5/3 109/5/3 108/5/3
f 114/1/3 108/1/3 113/1/3
f 115/1/3 98/1/3 109/1/3
f 115/5/3 109/5/3 114/5/3
f 116/1/3 98/1/3 115/1/3
f 117/6/3 99/6/3 98/6/3
f 117/1/3 98/1/3 116/1/3
f 118/1/3 100/1/3 99/1/3
f 118/6/3 99/6/3 117/6/3
f 119/1/3 105/1/3 112/1/3
f 119/6/3 112/6/3 111/6/3
f 120/1/3 105/1/3 119/1/3
f 121/6/3 106/6/3 105/6/3
f 121/1/3 105/1/3 120/1/3
f 122/1/3 61/1/3 106/1/3
f 122/6/3 106/6/3 121/6/3
f 123/1/3 61/1/3 122/1/3
f 124/5/3 114/5/3 113/5/3
f 124/1/3 113/1/3 107/1/3
f 125/1/3 116/1/3 115/1/3
f 125/5/3 114/5/3 124/5/3
f 125/1/3 115/1/3 114/1/3
f 126/6/3 101/6/3 90/6/3
f 126/1/3 90/1/3 100/1/3
f 126/1/3 100/1/3 118/1/3
f 126/1/3 118/1/3 117/1/3
f 127/1/3 110/1/3 101/1/3
f 127/6/3 101/6/3 126/6/3
f 127/1/3 111/1/3 110/1/3
f 128/1/3 111/1/3 127/1/3
f 129/1/3 111/1/3 128/1/3
f 130/6/3 120/6/3 119/6/3
f 130/1/3 111/1/3 129/1/3
f 130/6/3 119/6/3 111/6/3
f 131/6/3 120/6/3 130/6/3
f 132/1/3 121/1/3 120/1/3
f 132/6/3 120/6/3 131/6/3
f 132/1/3 122/1/3 121/1/3
f 133/1/3 122/1/3 132/1/3
f 134/1/3 125/1/3 124/1/3
f 134/1/3 124/1/3 107/1/3
f 135/1/3 116/1/3 125/1/3
f 135/1/3 125/1/3 134/1/3
f 136/1/3 129/1/3 128/1/3
f 136/6/3 128/6/3 127/6/3
f 137/6/3 131/6/3 130/6/3
f 137/1/3 129/1/3 136/1/3
f 137/6/3 130/6/3 129/6/3
f 138/6/3 131/6/3 137/6/3
f 139/1/3 132/1/3 131/1/3
f 139/6/3 131/6/3 138/6/3
f 140/1/3 132/1/3 139/1/3
f 141/6/3 133/6/3 132/6/3
f 141/1/3 132/1/3 140/1/3
f 142/1/3 122/1/3 133/1/3
f 142/6/3 133/6/3 141/6/3
f 143/6/3 123/6/3 122/6/3
f 143/1/3 122/1/3 142/1/3
f 144/1/3 134/1/3 107/1/3
f 144/5/3 135/5/3 134/5/3
f 145/5/3 135/5/3 144/5/3
f 146/1/3 107/1/3 56/1/3
f 146/1/3 144/1/3 107/1/3
f 146/1/3 145/1/3 144/1/3
f 147/5/3 135/5/3 145/5/3
f 147/1/3 145/1/3 146/1/3
f 148/1/3 116/1/3 135/1/3
f 148/5/3 135/5/3 147/5/3
f 149/1/3 116/1/3 148/1/3
f 150/6/3 136/6/3 127/6/3
f 150/6/3 137/6/3 136/6/3
f 151/1/3 138/1/3 137/1/3
f 151/6/3 137/6/3 150/6/3
f 152/3/3 139/3/3 138/3/3
f 152/1/3 138/1/3 151/1/3
f 153/5/3 140/5/3 139/5/3
f 153/3/3 139/3/3 152/3/3
f 154/1/3 141/1/3 140/1/3
f 154/5/3 140/5/3 153/5/3
f 154/1/3 142/1/3 141/1/3
f 155/1/3 142/1/3 154/1/3
f 156/6/3 143/6/3 142/6/3
f 156/1/3 142/1/3 155/1/3
f 157/6/3 123/6/3 143/6/3
f 157/6/3 143/6/3 156/6/3
f 158/1/3 146/1/3 56/1/3
f 158/5/3 147/5/3 146/5/3
f 158/5/3 148/5/3 147/5/3
f 158/5/3 149/5/3 148/5/3
f 159/1/3 116/1/3 149/1/3
f 159/5/3 149/5/3 158/5/3
f 160/1/3 126/1/3 117/1/3
f 160/1/3 127/1/3 126/1/3
f 161/6/3 150/6/3 127/6/3
f 161/1/3 127/1/3 160/1/3
f 162/1/3 151/1/3 150/1/3
f 162/6/3 150/6/3 161/6/3
f 163/6/3 153/6/3 152/6/3
f 163/1/3 151/1/3 162/1/3
f 163/6/3 152/6/3 151/6/3
f 164/6/3 153/6/3 163/6/3
f 165/1/3 154/1/3 153/1/3
f 165/6/3 153/6/3 164/6/3
f 165/1/3 155/1/3 154/1/3
f 166/6/3 156/6/3 155/6/3
f 166/1/3 155/1/3 165/1/3
f 167/1/3 157/1/3 156/1/3
f 167/6/3 156/6/3 166/6/3
f 168/1/3 159/1/3 158/1/3
f 169/1/3 159/1/3 168/1/3
f 170/1/3 116/1/3 159/1/3
f 170/1/3 159/1/3 169/1/3
f 170/6/3 117/6/3 116/6/3
f 171/1/3 160/1/3 117/1/3
f 171/6/3 117/6/3 170/6/3
f 172/1/3 160/1/3 171/1/3
f 173/6/3 165/6/3 164/6/3
f 173/6/3 166/6/3 165/6/3
f 174/1/3 167/1/3 166/1/3
f 174/6/3 166/6/3 173/6/3
f 175/1/3 157/1/3 167/1/3
f 175/1/3 167/1/3 174/1/3
f 176/6/3 123/6/3 157/6/3
f 176/1/3 157/1/3 175/1/3
f 177/1/3 61/1/3 123/1/3
f 177/6/3 123/6/3 176/6/3
f 178/5/3 169/5/3 168/5/3
f 178/1/3 168/1/3 158/1/3
f 179/1/3 170/1/3 169/1/3
f 179/5/3 169/5/3 178/5/3
f 179/1/3 171/1/3 170/1/3
f 180/1/3 162/1/3 161/1/3
f 180/1/3 164/1/3 163/1/3
f 180/1/3 163/1/3 162/1/3
f 181/6/3 173/6/3 164/6/3
f 181/1/3 164/1/3 180/1/3
f 182/1/3 175/1/3 174/1/3
f 182/6/3 173/6/3 181/6/3
f 182/1/3 174/1/3 173/1/3
f 183/1/3 179/1/3 178/1/3
f 184/1/3 171/1/3 179/1/3
f 184/1/3 179/1/3 183/1/3
f 185/6/3 172/6/3 171/6/3
f 185/1/3 171/1/3 184/1/3
f 186/1/3 160/1/3 172/1/3
f 186/6/3 172/6/3 185/6/3
f 187/1/3 160/1/3 186/1/3
f 188/6/3 161/6/3 160/6/3
f 188/1/3 180/1/3 161/1/3
f 189/6/3 181/6/3 180/6/3
f 189/1/3 180/1/3 188/1/3
f 190/1/3 182/1/3 181/1/3
f 190/6/3 181/6/3 189/6/3
f 191/1/3 175/1/3 182/1/3
f 191/1/3 182/1/3 190/1/3
f 192/6/3 176/6/3 175/6/3
f 192/1/3 175/1/3 191/1/3
f 193/1/3 177/1/3 176/1/3
f 193/6/3 176/6/3 192/6/3
f 194/1/3 183/1/3 178/1/3
f 194/1/3 178/1/3 158/1/3
f 195/5/3 184/5/3 183/5/3
f 195/1/3 183/1/3 194/1/3
f 196/5/3 184/5/3 195/5/3
f 197/1/3 185/1/3 184/1/3
f 197/5/3 184/5/3 196/5/3
f 197/1/3 186/1/3 185/1/3
f 198/6/3 187/6/3 186/6/3
f 198/1/3 186/1/3 197/1/3
f 199/1/3 160/1/3 187/1/3
f 199/6/3 187/6/3 198/6/3
f 200/6/3 188/6/3 160/6/3
f 200/1/3 160/1/3 199/1/3
f 200/6/3 189/6/3 188/6/3
f 201/6/3 189/6/3 200/6/3
f 202/1/3 191/1/3 190/1/3
f 202/6/3 189/6/3 201/6/3
f 202/1/3 190/1/3 189/1/3
f 203/1/3 191/1/3 202/1/3
f 204/6/3 192/6/3 191/6/3
f 204/1/3 191/1/3 203/1/3
f 205/1/3 193/1/3 192/1/3
f 205/6/3 192/6/3 204/6/3
f 206/1/3 158/1/3 56/1/3
f 206/1/3 194/1/3 158/1/3
f 207/5/3 196/5/3 195/5/3
f 207/1/3 194/1/3 206/1/3
f 207/5/3 195/5/3 194/5/3
f 208/6/3 201/6/3 200/6/3
f 208/1/3 198/1/3 197/1/3
f 208/1/3 199/1/3 198/1/3
f 208/6/3 200/6/3 199/6/3
f 208/1/3 197/1/3 196/1/3
f 209/1/3 203/1/3 202/1/3
f 209/6/3 201/6/3 208/6/3
f 209/1/3 202/1/3 201/1/3
f 210/6/3 204/6/3 203/6/3
f 210/1/3 203/1/3 209/1/3
f 211/1/3 205/1/3 204/1/3
f 211/6/3 204/6/3 210/6/3
f 212/5/3 196/5/3 207/5/3
f 212/5/3 207/5/3 206/5/3
f 213/1/3 208/1/3 196/1/3
f 213/5/3 196/5/3 212/5/3
f 213/1/3 209/1/3 208/1/3
f 214/1/3 209/1/3 213/1/3
f 215/1/3 209/1/3 214/1/3
f 216/6/3 210/6/3 209/6/3
f 216/1/3 209/1/3 215/1/3
f 217/1/3 211/1/3 210/1/3
f 217/6/3 210/6/3 216/6/3
f 218/1/3 206/1/3 56/1/3
f 218/5/3 212/5/3 206/5/3
f 219/1/3 213/1/3 212/1/3
f 219/5/3 212/5/3 218/5/3
f 219/1/3 214/1/3 213/1/3
f 220/1/3 214/1/3 219/1/3
f 221/5/3 215/5/3 214/5/3
f 221/1/3 214/1/3 220/1/3
f 222/1/3 220/1/3 219/1/3
f 222/1/3 218/1/3 56/1/3
f 222/1/3 219/1/3 218/1/3
f 223/5/3 221/5/3 220/5/3
f 223/1/3 220/1/3 222/1/3
f 224/1/3 216/1/3 215/1/3
f 224/5/3 221/5/3 223/5/3
f 224/1/3 217/1/3 216/1/3
f 224/5/3 215/5/3 221/5/3
f 225/5/3 223/5/3 222/5/3
f 225/1/3 222/1/3 56/1/3
f 226/5/3 223/5/3 225/5/3
f 227/1/3 224/1/3 223/1/3
f 227/5/3 223/5/3 226/5/3
f 228/1/3 224/1/3 227/1/3
f 229/1/3 226/1/3 225/1/3
f 229/5/3 227/5/3 226/5/3
f 229/5/3 228/5/3 227/5/3
f 230/1/3 224/1/3 228/1/3
f 230/5/3 228/5/3 229/5/3
f 231/1/3 61/1/3 177/1/3
f 231/1/3 224/1/3 230/1/3
f 231/1/3 230/1/3 229/1/3
f 231/1/3 205/1/3 211/1/3
f 231/1/3 211/1/3 217/1/3
f 231/1/3 217/1/3 224/1/3
f 231/1/3 177/1/3 193/1/3
f 231/1/3 193/1/3 205/1/3
f 232/1/3 59/1/3 61/1/3
f 232/1/3 61/1/3 231/1/3
f 233/1/3 231/1/3 229/1/3
f 233/1/3 225/1/3 56/1/3
f 233/1/3 229/1/3 225/1/3
f 234/2/3 232/2/3 231/2/3
f 234/1/3 231/1/3 233/1/3
f 235/1/3 59/1/3 232/1/3
f 235/2/3 232/2/3 234/2/3
f 236/1/3 59/1/3 235/1/3
f 237/1/4 238/1/4 241/1/4
f 238/2/4 239/2/4 241/2/4
f 239/1/4 240/1/4 242/1/4
f 241/2/4 239/2/4 242/2/4
f 237/1/4 241/1/4 243/1/4
f 241/1/4 242/1/4 243/1/4
f 243/1/4 242/1/4 244/1/4
f 244/1/4 242/1/4 245/1/4
f 245/1/4 242/1/4 246/1/4
f 243/5/4 244/5/4 247/5/4
f 244/1/4 245/1/4 248/1/4
f 247/5/4 244/5/4 248/5/4
f 245/5/4 246/5/4 249/5/4
f 248/1/4 245/1/4 249/1/4
f 249/5/4 246/5/4 250/5/4
f 237/1/4 243/1/4 251/1/4
f 243/5/4 247/5/4 251/5/4
f 249/1/4 250/1/4 252/1/4
f 251/5/4 247/5/4 252/5/4
f 247/1/4 248/1/4 252/1/4
f 248/1/4 249/1/4 252/1/4
f 250/5/4 246/5/4 253/5/4
f 252/1/4 250/1/4 253/1/4
f 246/1/4 242/1/4 254/1/4
f 253/5/4 246/5/4 254/5/4
f 251/1/4 252/1/4 255/1/4
f 252/1/4 253/1/4 255/1/4
f 253/1/4 254/1/4 255/1/4
f 237/1/4 251/1/4 255/1/4
f 255/1/4 254/1/4 256/1/4
f 256/1/4 254/1/4 257/1/4
f 254/1/4 242/1/4 258/1/4
f 257/1/4 254/1/4 258/1/4
f 256/1/4 257/1/4 259/1/4
f 255/5/4 256/5/4 259/5/4
f 259/1/4 257/1/4 260/1/4
f 260/1/4 257/1/4 261/1/4
f 257/5/4 258/5/4 262/5/4
f 261/1/4 257/1/4 262/1/4
f 237/1/4 255/1/4 263/1/4
f 255/5/4 259/5/4 263/5/4
f 259/5/4 260/5/4 263/5/4
f 260/1/4 261/1/4 264/1/4
f 263/5/4 260/5/4 264/5/4
f 261/5/4 262/5/4 265/5/4
f 264/1/4 261/1/4 265/1/4
f 258/1/4 242/1/4 266/1/4
f 265/5/4 262/5/4 266/5/4
f 262/5/4 258/5/4 266/5/4
f 264/1/4 265/1/4 267/1/4
f 266/1/4 242/1/4 267/1/4
f 265/1/4 266/1/4 267/1/4
f 263/1/4 264/1/4 267/1/4
f 242/1/4 240/1/4 268/1/4
f 267/1/4 242/1/4 268/1/4
f 263/1/4 267/1/4 269/1/4
f 237/1/4 263/1/4 269/1/4
f 267/2/4 268/2/4 270/2/4
f 269/1/4 267/1/4 270/1/4
f 268/1/4 240/1/4 271/1/4
f 270/2/4 268/2/4 271/2/4
f 271/1/4 240/1/4 272/1/4
f 275/1/5 274/1/5 273/1/5
f 276/1/5 274/1/5 275/1/5
f 277/1/6 278/1/6 279/1/6
f 279/1/6 278/1/6 280/1/6
f 279/2/6 280/2/6 281/2/6
f 281/2/6 280/2/6 282/2/6
f 281/1/6 282/1/6 283/1/6
f 283/1/6 282/1/6 284/1/6
