# MagicaVoxel @ Ephtracy

# group
o 

# material
mtllib Door.mtl
usemtl palette

# normals
vn -1 0 0
vn 1 0 0
vn 0 0 1
vn 0 0 -1
vn 0 -1 0
vn 0 1 0

# texcoords
vt 0.263672 0.5
vt 0.306641 0.5
vt 0.923828 0.5

# verts
v -0.3 2.2 0.6
v -0.3 2.2 0.3
v -0.3 2.3 0.6
v -0.3 2.3 0.3
v -0.2 0 0.8
v -0.2 0 -0.7
v -0.2 2.2 0.6
v -0.2 2.2 0.3
v -0.2 2.3 0.6
v -0.2 2.3 0.3
v -0.2 2.9 0.2
v -0.2 2.9 -0.1
v -0.2 3 0.3
v -0.2 3 0.2
v -0.2 3 -0.1
v -0.2 3 -0.2
v -0.2 3.1 0.4
v -0.2 3.1 0.3
v -0.2 3.1 -0.2
v -0.2 3.1 -0.3
v -0.2 3.4 0.4
v -0.2 3.4 0.3
v -0.2 3.4 -0.2
v -0.2 3.4 -0.3
v -0.2 3.5 0.3
v -0.2 3.5 0.2
v -0.2 3.5 -0.1
v -0.2 3.5 -0.2
v -0.2 3.6 0.2
v -0.2 3.6 -0.1
v -0.2 4 0.8
v -0.2 4 -0.7
v 0.1 0 0.8
v 0.1 0 -0.7
v 0.1 2.2 0.6
v 0.1 2.2 0.3
v 0.1 2.3 0.6
v 0.1 2.3 0.3
v 0.1 2.9 0.2
v 0.1 2.9 -0.1
v 0.1 3 0.3
v 0.1 3 0.2
v 0.1 3 -0.1
v 0.1 3 -0.2
v 0.1 3.1 0.4
v 0.1 3.1 0.3
v 0.1 3.1 -0.2
v 0.1 3.1 -0.3
v 0.1 3.4 0.4
v 0.1 3.4 0.3
v 0.1 3.4 -0.2
v 0.1 3.4 -0.3
v 0.1 3.5 0.3
v 0.1 3.5 0.2
v 0.1 3.5 -0.1
v 0.1 3.5 -0.2
v 0.1 3.6 0.2
v 0.1 3.6 -0.1
v 0.1 4 0.8
v 0.1 4 -0.7
v 0.2 2.2 0.6
v 0.2 2.2 0.3
v 0.2 2.3 0.6
v 0.2 2.3 0.3
v -0.2 0 0.8
v -0.2 4 0.8
v 0.1 0 0.8
v 0.1 4 0.8
v -0.3 2.2 0.6
v -0.3 2.3 0.6
v -0.2 2.2 0.6
v -0.2 2.3 0.6
v 0.1 2.2 0.6
v 0.1 2.3 0.6
v 0.2 2.2 0.6
v 0.2 2.3 0.6
v -0.2 2.9 -0.1
v -0.2 3 -0.1
v -0.2 3.5 -0.1
v -0.2 3.6 -0.1
v 0.1 2.9 -0.1
v 0.1 3 -0.1
v 0.1 3.5 -0.1
v 0.1 3.6 -0.1
v -0.2 3 -0.2
v -0.2 3.1 -0.2
v -0.2 3.4 -0.2
v -0.2 3.5 -0.2
v 0.1 3 -0.2
v 0.1 3.1 -0.2
v 0.1 3.4 -0.2
v 0.1 3.5 -0.2
v -0.2 3.1 -0.3
v -0.2 3.4 -0.3
v 0.1 3.1 -0.3
v 0.1 3.4 -0.3
v -0.2 3.1 0.4
v -0.2 3.4 0.4
v 0.1 3.1 0.4
v 0.1 3.4 0.4
v -0.3 2.2 0.3
v -0.3 2.3 0.3
v -0.2 2.2 0.3
v -0.2 2.3 0.3
v -0.2 3 0.3
v -0.2 3.1 0.3
v -0.2 3.4 0.3
v -0.2 3.5 0.3
v 0.1 2.2 0.3
v 0.1 2.3 0.3
v 0.1 3 0.3
v 0.1 3.1 0.3
v 0.1 3.4 0.3
v 0.1 3.5 0.3
v 0.2 2.2 0.3
v 0.2 2.3 0.3
v -0.2 2.9 0.2
v -0.2 3 0.2
v -0.2 3.5 0.2
v -0.2 3.6 0.2
v 0.1 2.9 0.2
v 0.1 3 0.2
v 0.1 3.5 0.2
v 0.1 3.6 0.2
v -0.2 0 -0.7
v -0.2 4 -0.7
v 0.1 0 -0.7
v 0.1 4 -0.7
v -0.2 0 0.8
v 0.1 0 0.8
v -0.2 0 -0.7
v 0.1 0 -0.7
v -0.3 2.2 0.6
v -0.2 2.2 0.6
v 0.1 2.2 0.6
v 0.2 2.2 0.6
v -0.3 2.2 0.3
v -0.2 2.2 0.3
v 0.1 2.2 0.3
v 0.2 2.2 0.3
v -0.2 3.4 0.4
v 0.1 3.4 0.4
v -0.2 3.4 0.3
v 0.1 3.4 0.3
v -0.2 3.4 -0.2
v 0.1 3.4 -0.2
v -0.2 3.4 -0.3
v 0.1 3.4 -0.3
v -0.2 3.5 0.3
v 0.1 3.5 0.3
v -0.2 3.5 0.2
v 0.1 3.5 0.2
v -0.2 3.5 -0.1
v 0.1 3.5 -0.1
v -0.2 3.5 -0.2
v 0.1 3.5 -0.2
v -0.2 3.6 0.2
v 0.1 3.6 0.2
v -0.2 3.6 -0.1
v 0.1 3.6 -0.1
v -0.3 2.3 0.6
v -0.2 2.3 0.6
v 0.1 2.3 0.6
v 0.2 2.3 0.6
v -0.3 2.3 0.3
v -0.2 2.3 0.3
v 0.1 2.3 0.3
v 0.2 2.3 0.3
v -0.2 2.9 0.2
v 0.1 2.9 0.2
v -0.2 2.9 -0.1
v 0.1 2.9 -0.1
v -0.2 3 0.3
v 0.1 3 0.3
v -0.2 3 0.2
v 0.1 3 0.2
v -0.2 3 -0.1
v 0.1 3 -0.1
v -0.2 3 -0.2
v 0.1 3 -0.2
v -0.2 3.1 0.4
v 0.1 3.1 0.4
v -0.2 3.1 0.3
v 0.1 3.1 0.3
v -0.2 3.1 -0.2
v 0.1 3.1 -0.2
v -0.2 3.1 -0.3
v 0.1 3.1 -0.3
v -0.2 4 0.8
v 0.1 4 0.8
v -0.2 4 -0.7
v 0.1 4 -0.7

# faces
f 3/3/1 2/3/1 1/3/1
f 4/3/1 2/3/1 3/3/1
f 7/1/1 6/1/1 5/1/1
f 8/1/1 6/1/1 7/1/1
f 9/1/1 7/1/1 5/1/1
f 10/1/1 6/1/1 8/1/1
f 11/1/1 6/1/1 10/1/1
f 11/1/1 10/1/1 9/1/1
f 12/1/1 6/1/1 11/1/1
f 13/1/1 11/1/1 9/1/1
f 14/1/1 11/1/1 13/1/1
f 15/1/1 6/1/1 12/1/1
f 16/1/1 6/1/1 15/1/1
f 17/1/1 13/1/1 9/1/1
f 18/1/1 13/1/1 17/1/1
f 19/1/1 6/1/1 16/1/1
f 20/1/1 6/1/1 19/1/1
f 21/1/1 17/1/1 9/1/1
f 24/1/1 6/1/1 20/1/1
f 25/1/1 22/1/1 21/1/1
f 28/1/1 24/1/1 23/1/1
f 29/1/1 26/1/1 25/1/1
f 30/1/1 28/1/1 27/1/1
f 31/1/1 9/1/1 5/1/1
f 31/1/1 30/1/1 29/1/1
f 31/1/1 29/1/1 25/1/1
f 31/1/1 21/1/1 9/1/1
f 31/1/1 25/1/1 21/1/1
f 32/1/1 28/1/1 30/1/1
f 32/1/1 30/1/1 31/1/1
f 32/1/1 24/1/1 28/1/1
f 32/1/1 6/1/1 24/1/1
f 33/1/2 34/1/2 35/1/2
f 35/1/2 34/1/2 36/1/2
f 33/1/2 35/1/2 37/1/2
f 36/1/2 34/1/2 38/1/2
f 38/1/2 34/1/2 39/1/2
f 37/1/2 38/1/2 39/1/2
f 39/1/2 34/1/2 40/1/2
f 37/1/2 39/1/2 41/1/2
f 41/1/2 39/1/2 42/1/2
f 40/1/2 34/1/2 43/1/2
f 43/1/2 34/1/2 44/1/2
f 37/1/2 41/1/2 45/1/2
f 45/1/2 41/1/2 46/1/2
f 44/1/2 34/1/2 47/1/2
f 47/1/2 34/1/2 48/1/2
f 37/1/2 45/1/2 49/1/2
f 48/1/2 34/1/2 52/1/2
f 49/1/2 50/1/2 53/1/2
f 51/1/2 52/1/2 56/1/2
f 53/1/2 54/1/2 57/1/2
f 55/1/2 56/1/2 58/1/2
f 33/1/2 37/1/2 59/1/2
f 57/1/2 58/1/2 59/1/2
f 53/1/2 57/1/2 59/1/2
f 37/1/2 49/1/2 59/1/2
f 49/1/2 53/1/2 59/1/2
f 58/1/2 56/1/2 60/1/2
f 59/1/2 58/1/2 60/1/2
f 56/1/2 52/1/2 60/1/2
f 52/1/2 34/1/2 60/1/2
f 61/3/2 62/3/2 63/3/2
f 63/3/2 62/3/2 64/3/2
f 67/1/3 66/1/3 65/1/3
f 68/1/3 66/1/3 67/1/3
f 71/3/3 70/3/3 69/3/3
f 72/3/3 70/3/3 71/3/3
f 75/3/3 74/3/3 73/3/3
f 76/3/3 74/3/3 75/3/3
f 81/1/3 78/1/3 77/1/3
f 82/1/3 78/1/3 81/1/3
f 83/1/3 80/1/3 79/1/3
f 84/1/3 80/1/3 83/1/3
f 89/1/3 86/1/3 85/1/3
f 90/1/3 86/1/3 89/1/3
f 91/1/3 88/1/3 87/1/3
f 92/1/3 88/1/3 91/1/3
f 95/1/3 94/1/3 93/1/3
f 96/1/3 94/1/3 95/1/3
f 97/1/4 98/1/4 99/1/4
f 99/1/4 98/1/4 100/1/4
f 101/3/4 102/3/4 103/3/4
f 103/3/4 102/3/4 104/3/4
f 105/1/4 106/1/4 111/1/4
f 111/1/4 106/1/4 112/1/4
f 107/1/4 108/1/4 113/1/4
f 113/1/4 108/1/4 114/1/4
f 109/3/4 110/3/4 115/3/4
f 115/3/4 110/3/4 116/3/4
f 117/1/4 118/1/4 121/1/4
f 121/1/4 118/1/4 122/1/4
f 119/1/4 120/1/4 123/1/4
f 123/1/4 120/1/4 124/1/4
f 125/1/4 126/1/4 127/1/4
f 127/1/4 126/1/4 128/1/4
f 131/1/5 130/1/5 129/1/5
f 132/1/5 130/1/5 131/1/5
f 137/3/5 134/3/5 133/3/5
f 138/3/5 134/3/5 137/3/5
f 139/3/5 136/3/5 135/3/5
f 140/3/5 136/3/5 139/3/5
f 143/1/5 142/1/5 141/1/5
f 144/1/5 142/1/5 143/1/5
f 147/1/5 146/1/5 145/1/5
f 148/1/5 146/1/5 147/1/5
f 151/1/5 150/1/5 149/1/5
f 152/1/5 150/1/5 151/1/5
f 155/1/5 154/1/5 153/1/5
f 156/1/5 154/1/5 155/1/5
f 159/1/5 158/1/5 157/1/5
f 160/1/5 158/1/5 159/1/5
f 161/3/6 162/3/6 165/3/6
f 165/3/6 162/3/6 166/3/6
f 163/3/6 164/3/6 167/3/6
f 167/3/6 164/3/6 168/3/6
f 169/1/6 170/1/6 171/1/6
f 171/1/6 170/1/6 172/1/6
f 173/1/6 174/1/6 175/1/6
f 175/1/6 174/1/6 176/1/6
f 177/1/6 178/1/6 179/1/6
f 179/1/6 178/1/6 180/1/6
f 181/1/6 182/1/6 183/1/6
f 183/1/6 182/1/6 184/1/6
f 185/1/6 186/1/6 187/1/6
f 187/1/6 186/1/6 188/1/6
f 189/1/6 190/1/6 191/1/6
f 191/1/6 190/1/6 192/1/6
